<?xml version="1.0" encoding="utf-8"?>
<!-- Generator: Adobe Illustrator 18.1.1, SVG Export Plug-In . SVG Version: 6.00 Build 0)  -->
<svg version="1.0" id="Layer_1" xmlns="http://www.w3.org/2000/svg" xmlns:xlink="http://www.w3.org/1999/xlink" x="0px" y="0px"
	 width="158.1px" height="34.6px" viewBox="-172 379.4 158.1 34.6" enable-background="new -172 379.4 158.1 34.6"
	 xml:space="preserve">
<path fill="#D52B27" d="M-25.5,382.4h-1.7v-0.8h4.2v0.8h-1.7v6.4h-0.8V382.4z M-21.8,381.5h1.2l2.7,5.9l2.7-5.9h1.3v7.2h-0.8v-6l0,0
	l-2.7,6h-0.7l-2.7-6l0,0v6h-0.8v-7.2H-21.8z"/>
<g>
	<path d="M-167.3,412.4v-2.7l14.8-24.7h-14.4v-2.7h17.8v2.7l-14.8,24.7h15.2v2.7H-167.3z"/>
	<path d="M-123.5,402.3h-20.3c0.2,4.4,4.3,8.1,8.6,8.1c3.4,0,6.8-2,8-5.3h3c-1.6,4.6-6,7.8-10.9,7.8c-6.4,0-11.6-5.3-11.6-11.6
		c0-6.4,5.2-11.7,11.6-11.7c6.5,0,11.7,5.5,11.7,11.9C-123.4,401.7-123.5,402-123.5,402.3z M-135.1,392.1c-4.4,0-8,3.3-8.7,7.6h17.4
		C-127.1,395.4-130.6,392.1-135.1,392.1z"/>
	<path d="M-102.4,412.4v-12.3c0-2.1-0.5-4.6-2.1-6.1c-1.3-1.2-3.1-1.9-4.8-1.9c-1.8,0-3.5,0.7-4.8,1.9c-1.5,1.5-2.1,3.9-2.1,5.9
		v12.5h-2.9v-22.3h2.9v2.8h0.1c1.5-2.3,4.2-3.4,6.8-3.4c6.4,0,9.8,4.4,9.8,10.6v12.3H-102.4z"/>
	<path fill="#D52B27" d="M-70.5,412.4l-4.4-10.1h-14l-4.4,10.1h-3.1l12.9-30.1h3.4l12.9,30.1H-70.5z M-81.9,385.7l-5.9,13.8h11.7
		L-81.9,385.7z"/>
	<path fill="#D52B27" d="M-47.6,398.5c-2.3,1.5-5.1,1.8-7.8,1.8h-5.4v12.1h-3v-30.1h8.4c2.7,0,5.5,0.2,7.8,1.8
		c2.4,1.7,3.7,4.3,3.7,7.2C-43.8,394.2-45.1,396.8-47.6,398.5z M-50.4,385.7c-1.7-0.8-3.3-0.8-5.2-0.8h-5.2v12.5h5.2
		c1.9,0,3.5,0,5.2-0.8c2.2-1.1,3.5-3,3.5-5.5C-46.9,388.8-48.1,386.8-50.4,385.7z"/>
	<path fill="#D52B27" d="M-39.6,412.4v-30.1h3v30.1H-39.6z"/>
</g>
</svg>
